<?xml version="1.0" encoding="UTF-8" standalone="no"?>
<svg width="15px" height="22px" viewBox="0 0 15 22" version="1.1" xmlns="http://www.w3.org/2000/svg" xmlns:xlink="http://www.w3.org/1999/xlink">
    <!-- Generator: Sketch 3.6.1 (26313) - http://www.bohemiancoding.com/sketch -->
    <title>currency-dollar-512px</title>
    <desc>Created with Sketch.</desc>
    <defs></defs>
    <g id="Screens" stroke="none" stroke-width="1" fill="none" fill-rule="evenodd">
        <g id="Deals/Coupons" transform="translate(-191.000000, -530.000000)" stroke="#5A2B83" fill="#5A2B83">
            <g id="TabBar" transform="translate(0.000000, 526.000000)">
                <g id="Tab-Item-3" transform="translate(147.000000, 5.000000)">
                    <g id="currency-dollar-512px" transform="translate(45.000000, 0.000000)">
                        <path d="M7.76840874,20 L7.76840874,17.5109711 C9.52558402,17.2600161 10.8450012,16.7289067 11.7266858,15.9162635 C12.6083959,15.1045539 13.0494932,14.1393557 13.0500794,13.0206477 C13.0676162,11.9066718 12.6977624,10.9800738 11.9399062,10.2401536 C11.1820754,9.50048807 9.93163305,8.87687802 8.18860449,8.36906884 C6.89235732,7.99522536 5.95752692,7.64799253 5.38403683,7.32664884 C4.81029184,7.00553858 4.52921823,6.65193956 4.54081599,6.26587302 C4.52694966,5.90401918 4.71021975,5.58220864 5.08996353,5.30067482 C5.4697328,5.01909855 6.12830712,4.87055428 7.06599235,4.8550208 C8.21065298,4.87267634 9.1358993,4.97979798 9.8417058,5.17708599 C10.5469261,5.37411934 11.0745859,5.55564044 11.424099,5.7215856 L12.280345,2.95214753 C11.799637,2.75089127 11.2154158,2.57408115 10.5271461,2.42152619 C9.83946272,2.26920465 9.01372773,2.17763772 8.05116467,2.14701638 L8.05116467,0 L5.17504775,0 L5.17504775,2.31790595 C3.55362999,2.57590612 2.31674805,3.09029369 1.46419802,3.86104745 C0.611928381,4.63182243 0.182377955,5.57348697 0.176183987,6.68652916 C0.198793245,7.86949325 0.674148449,8.812813 1.60250449,9.51646719 C2.53086054,10.2201214 3.7764854,10.7860538 5.3390987,11.2145191 C6.43910158,11.5158518 7.27072467,11.8346278 7.83516596,12.1703166 C8.39960725,12.5055598 8.68348472,12.9048043 8.68575329,13.367159 C8.66424008,13.8530473 8.36789821,14.2297131 7.79558064,14.4957559 C7.22323758,14.7627111 6.50188242,14.8973771 5.63177007,14.9011544 C4.68136554,14.8912656 3.79965543,14.7810882 2.98697111,14.5701553 C2.17454168,14.3592225 1.46562544,14.1064001 0.860783164,13.8125796 L0,16.6648629 C0.51634245,16.9257066 1.20716109,17.1535736 2.07217552,17.3480392 C2.93718995,17.5424837 3.87005765,17.6611493 4.87080411,17.7044606 L4.87080411,20 L7.76840874,20 L7.76840874,20 Z" id="Shape"></path>
                    </g>
                </g>
            </g>
        </g>
    </g>
</svg>