<?xml version="1.0" encoding="UTF-8" standalone="no"?>
<svg width="22px" height="22px" viewBox="0 0 22 22" version="1.1" xmlns="http://www.w3.org/2000/svg" xmlns:xlink="http://www.w3.org/1999/xlink">
    <!-- Generator: Sketch 3.6.1 (26313) - http://www.bohemiancoding.com/sketch -->
    <title>ticket-512px</title>
    <desc>Created with Sketch.</desc>
    <defs></defs>
    <g id="Screens" stroke="none" stroke-width="1" fill="none" fill-rule="evenodd">
        <g id="Events" transform="translate(-271.000000, -529.000000)" stroke="#5A2B83" fill="#5A2B83">
            <g id="TabBar" transform="translate(0.000000, 526.000000)">
                <g id="Tab-Item-4" transform="translate(247.000000, 4.000000)">
                    <g id="ticket-512px" transform="translate(25.000000, 0.000000)">
                        <path d="M19.5992164,5.81061081 L18.1605561,4.37475494 L17.5341804,4.99990967 C17.2136736,5.31983076 16.77078,5.51768184 16.281742,5.51768184 C15.3035094,5.51768184 14.5104419,4.72623846 14.5104419,3.74991272 C14.5104419,3.2615936 14.7088751,2.8194853 15.029695,2.49956421 L15.6556794,1.87483917 L14.21698,0.438983303 C13.6305257,-0.146327768 12.6708448,-0.146327768 12.0843906,0.438983303 L0.43984503,12.0607909 C-0.146570088,12.6461019 -0.146570088,13.6039512 0.43984503,14.1892232 L1.87858358,15.6251181 L2.50405912,15.0008228 C2.8246442,14.6803938 3.26785082,14.4822303 3.75735852,14.4822303 C4.73559115,14.4822303 5.52858032,15.2737127 5.52858032,16.2499994 C5.52858032,16.7383966 5.33014712,17.1804659 5.00932721,17.500426 L4.38342114,18.1251511 L5.82208142,19.561046 C6.40849653,20.146318 7.36821656,20.146318 7.95467081,19.561046 L19.5992164,7.93919937 C20.1855923,7.35373205 20.1855923,6.39592188 19.5992164,5.81061081 L19.5992164,5.81061081 Z" id="Shape"></path>
                    </g>
                </g>
            </g>
        </g>
    </g>
</svg>