<?xml version="1.0" encoding="UTF-8" standalone="no"?>
<svg width="22px" height="22px" viewBox="0 0 22 22" version="1.1" xmlns="http://www.w3.org/2000/svg" xmlns:xlink="http://www.w3.org/1999/xlink">
    <!-- Generator: Sketch 3.6.1 (26313) - http://www.bohemiancoding.com/sketch -->
    <title>Shape</title>
    <desc>Created with Sketch.</desc>
    <defs></defs>
    <g id="Screens" stroke="none" stroke-width="1" fill="none" fill-rule="evenodd">
        <g id="Explore/Map" transform="translate(-105.000000, -529.000000)" stroke="#5A2B83" fill="#FFFFFF">
            <g id="TabBar" transform="translate(0.000000, 526.000000)">
                <g id="Tab-Item-2" transform="translate(65.000000, 4.000000)">
                    <path d="M41,5.86543991 C41,4.24765191 41.5225694,2.86563159 42.5677083,1.71937895 C43.6128472,0.573126318 44.8715278,3.34912064e-16 46.34375,0 C47.3298611,0 48.2361111,0.272187081 49.0625,0.816561242 C49.8888889,1.3609354 50.5347222,2.08548975 51,2.99022427 C51.4652778,2.08548975 52.1111111,1.3609354 52.9375,0.816561242 C53.7638889,0.272187081 54.6701389,3.34912064e-16 55.65625,3.34912064e-16 C57.1284722,3.34912064e-16 58.3871528,0.573126318 59.4322917,1.71937895 C60.4774306,2.86563159 61,4.24765191 61,5.86543991 C61,7.36821928 60.5486111,8.67165037 59.6458333,9.77573318 L52.3333333,19.2869465 C51.9722222,19.7623155 51.5277778,20 51,20 C50.4722222,20 50.0277778,19.7623155 49.6666667,19.2869465 L42.3541667,9.77573318 C41.4513889,8.67165037 41,7.36821928 41,5.86543991 L41,5.86543991 Z" id="Shape"></path>
                </g>
            </g>
        </g>
    </g>
</svg>