<?xml version="1.0" encoding="utf-8"?>
<!-- Generator: Adobe Illustrator 19.2.0, SVG Export Plug-In . SVG Version: 6.00 Build 0)  -->
<svg version="1.1" id="Layer_1" xmlns="http://www.w3.org/2000/svg" xmlns:xlink="http://www.w3.org/1999/xlink" x="0px" y="0px"
	 viewBox="0 0 216 216" style="enable-background:new 0 0 216 216;" xml:space="preserve">
<style type="text/css">
	.st0{fill:#5A2B83;}
	.st1{fill:url(#SVGID_1_);stroke:#714F90;stroke-miterlimit:10;}
	.st2{fill:url(#SVGID_2_);stroke:#00B3E5;stroke-miterlimit:10;}
	.st3{fill:url(#SVGID_3_);stroke:#FF9D19;stroke-miterlimit:10;}
	.st4{fill:url(#SVGID_4_);stroke:#75BD23;stroke-miterlimit:10;}
	.st5{fill:url(#SVGID_5_);stroke:#EB6BB1;stroke-miterlimit:10;}
</style>
<g>
	<g>
		<g>
			<path class="st0" d="M37.1,134.5h12.2l5.3-24.7h11.9l-13.2,62.1H41.4l6.6-31.2H35.8l-6.6,31.2H17.2l12-56.4
				c-7.3,3.1-11.6,9.4-11.6,18.2c0,4.2,1.1,4.9,1.2,5.6c-5.7,0-8.9-2.1-8.9-8c0-11,15.3-21.6,29.1-21.6c1.2,0,2.2,0.1,3.3,0.2
				L37.1,134.5z"/>
			<path class="st0" d="M74.9,149.1c4.7,0,7.5-2.6,10.4-5.9h2c-3.4,5.4-8.4,10.9-16.2,10.9c-5.5,0-9.2-2.7-9.2-9.4
				c0-6.8,3.8-21,15.9-21c5.2,0,6.5,2.7,6.5,5.7c0,6.8-6.5,12-13.5,12.4c-0.1,0.8-0.1,1.6-0.1,2.4C70.6,148.2,72,149.1,74.9,149.1z
				 M78.3,126.9c-3,0-5.9,6.3-7.1,12.1c4.5-0.3,8.5-4.8,8.5-9.7C79.8,127.8,79.4,126.9,78.3,126.9z"/>
			<path class="st0" d="M113.5,124.3l-4.2,20c-0.2,0.8-0.2,1.4-0.2,1.9c0,1.6,0.8,2.5,2.4,2.5c2.3,0,3.9-2.6,4.8-5.5h2.5
				c-3.4,9.6-8.7,10.9-11.8,10.9c-3.3,0-5.4-1.9-5.8-5.4c-1.8,2.7-4.6,5.4-8.8,5.4c-4,0-7.8-2.5-7.8-9.5c0-7.9,4.9-20.6,15.1-20.6
				c3.4,0,4.8,1.3,4.8,3v0.4l0.6-3.1H113.5z M93.2,143.8c0,4.5,1.9,4.6,2.9,4.6c1.7,0,4.2-1.8,4.9-5.2l2.8-13.3
				c0-0.7-0.5-2.2-2.4-2.2C96.5,127.6,93.2,138.2,93.2,143.8z"/>
			<path class="st0" d="M131.3,112.5l-6.8,31.8c-0.2,0.8-0.2,1.4-0.2,1.9c0,1.6,0.8,2.2,2.4,2.2c2.3,0,4.4-2.2,5.3-5.2h2.5
				c-3.4,9.6-9.2,10.9-12.4,10.9c-3.5,0-6.3-2.1-6.3-7.1c0-1.1,0.2-2.4,0.5-3.8l6.3-29.5L131.3,112.5z"/>
			<path class="st0" d="M146.4,115l-2,9.3h3.5l-0.5,2.4H144l-3.8,17.7c-0.2,0.8-0.2,1.4-0.2,1.9c0,1.6,0.8,2.2,2.4,2.2
				c2.3,0,4.4-2.2,5.3-5.2h2.5c-3.4,9.6-9.2,10.9-12.4,10.9c-3.5,0-6.3-2.1-6.3-7.1c0-1.1,0.2-2.4,0.5-3.8l3.5-16.5h-1.9l0.5-2.4
				h1.9l1.8-8.1L146.4,115z"/>
			<path class="st0" d="M162.5,129.4c-2.3,0-4.1,3.6-4.5,5.2l-4.1,19.1h-8.5l8.5-40l8.7-1.2l-3.2,14.8c2.5-2.8,5.1-3.3,6.9-3.3
				c3.8,0,6.5,1.9,6.5,6.7c0,4.8-2.8,11.9-2.8,15.2c0,1.5,0.6,2.5,2.4,2.5c2.6,0,3.7-2.1,4.9-5.2h2.5c-3.3,9.7-7.8,10.9-10.9,10.9
				c-5.1,0-6.9-3.3-6.9-6.7c0-4,2.6-11.2,2.6-15C164.6,130.5,163.9,129.4,162.5,129.4z"/>
			<path class="st0" d="M189.9,124.3l-4.2,20c-0.1,0.5-0.2,1-0.2,1.5c0,1.4,0.4,2.6,1.8,2.6c2.3,0,3.8-2.2,4.7-5.2l4-18.9h8.5
				l-8,39.3c-1.8,8.4-6.8,10-10.7,10c-3.6,0-6.9-2.5-6.9-6.4c0-5.5,4.6-7.2,10.2-8.8l1.4-7.7c-2.5,2.9-5.2,3.4-7.2,3.4
				c-3.5,0-6.3-2.1-6.3-7.1c0-1.1,0.2-2.4,0.5-3.8l4-18.9H189.9z M184.4,168.3c1.2,0,2.7-1.1,3.5-4.6l0.7-3.5
				c-3.7,1.2-6.5,2.9-6.5,6.1C182.1,167.2,183.2,168.3,184.4,168.3z"/>
		</g>
		<g>
			<path class="st0" d="M61.6,159.9h8.2c0.4,0,0.9,0.1,1.3,0.3c0.4,0.2,0.7,0.4,1.1,0.7c0.3,0.3,0.5,0.7,0.7,1.1
				c0.2,0.4,0.3,0.8,0.3,1.3c0,0.4-0.1,0.9-0.3,1.3c-0.2,0.4-0.4,0.8-0.7,1c-0.3,0.3-0.7,0.5-1.1,0.7c-0.4,0.2-0.8,0.3-1.3,0.3h-6.6
				v4.9h-1.6V159.9z M69.9,164.8c0.2,0,0.4,0,0.6-0.1c0.2-0.1,0.4-0.2,0.5-0.4c0.1-0.1,0.3-0.3,0.4-0.5c0.1-0.2,0.1-0.4,0.1-0.6
				c0-0.2,0-0.4-0.1-0.6s-0.2-0.4-0.4-0.5c-0.2-0.2-0.3-0.3-0.5-0.4c-0.2-0.1-0.4-0.1-0.6-0.1h-6.6v3.3H69.9z"/>
			<path class="st0" d="M81,159.9h1.6v9.9h9.9v1.6H81V159.9z"/>
			<path class="st0" d="M103.5,168.9l-1.2,2.5h-1.8l5.7-11.5h1.8l5.7,11.5h-1.8l-1.2-2.5H103.5z M107,161.8l-2.7,5.5h5.4L107,161.8z
				"/>
			<path class="st0" d="M127.7,159.9c0.6,0,1.1,0.1,1.6,0.2c0.5,0.1,1,0.3,1.5,0.6c0.5,0.3,0.9,0.6,1.3,0.9c0.4,0.3,0.7,0.7,1,1.2
				l-1.4,0.8c-0.2-0.3-0.4-0.6-0.7-0.8c-0.3-0.2-0.6-0.5-0.9-0.6c-0.3-0.2-0.7-0.3-1.1-0.4c-0.4-0.1-0.8-0.1-1.2-0.1
				c-0.6,0-1.2,0.1-1.8,0.3c-0.5,0.2-1,0.5-1.4,0.9c-0.4,0.4-0.7,0.8-1,1.3c-0.2,0.5-0.4,1-0.4,1.6c0,0.6,0.1,1.1,0.4,1.6
				c0.2,0.5,0.6,0.9,1,1.3c0.4,0.4,0.9,0.7,1.4,0.9c0.5,0.2,1.1,0.3,1.8,0.3c0.4,0,0.8,0,1.2-0.1c0.4-0.1,0.7-0.2,1.1-0.4
				c0.3-0.2,0.6-0.4,0.9-0.6c0.3-0.2,0.5-0.5,0.7-0.8l1.4,0.8c-0.3,0.4-0.6,0.8-1,1.2c-0.4,0.4-0.8,0.7-1.3,0.9
				c-0.5,0.3-1,0.4-1.5,0.6c-0.5,0.1-1.1,0.2-1.6,0.2c-1.7,0-3.2-0.6-4.4-1.7c-1.2-1.1-1.8-2.5-1.8-4.1c0-1.6,0.6-2.9,1.8-4.1
				C124.5,160.5,126,159.9,127.7,159.9z"/>
			<path class="st0" d="M140.9,159.9h11.5v1.7h-9.9v3.3h8.2v1.6h-8.2v3.3h9.9v1.6h-11.5V159.9z"/>
			<path class="st0" d="M160.3,163.2c0-0.5,0.1-0.9,0.3-1.2c0.2-0.3,0.4-0.6,0.8-0.9c0.3-0.2,0.7-0.4,1.1-0.6
				c0.4-0.1,0.8-0.3,1.2-0.4c0.4-0.1,0.9-0.1,1.3-0.2c0.4,0,0.8,0,1.1,0c1,0,2,0.1,3,0.4c1,0.3,1.9,0.7,2.7,1.2l-1.4,1
				c-0.6-0.3-1.3-0.6-2-0.8c-0.7-0.2-1.5-0.3-2.3-0.3c-0.2,0-0.4,0-0.7,0c-0.3,0-0.6,0-0.9,0.1c-0.3,0-0.6,0.1-0.9,0.1
				c-0.3,0.1-0.6,0.2-0.8,0.3c-0.2,0.1-0.4,0.3-0.6,0.5c-0.2,0.2-0.2,0.4-0.2,0.7c0,0.8,0.5,1.3,1.5,1.4c0.5,0.1,1.1,0.1,1.6,0.1
				c0.6,0,1.2,0.1,1.8,0.1c0.6,0,1.2,0.1,1.8,0.2c0.6,0.1,1.1,0.3,1.6,0.5c1,0.4,1.5,1.2,1.5,2.6c0,0.5-0.1,0.9-0.3,1.3
				c-0.2,0.4-0.4,0.6-0.8,0.9c-0.3,0.2-0.7,0.4-1.1,0.6c-0.4,0.2-0.8,0.3-1.2,0.4c-0.4,0.1-0.8,0.1-1.3,0.2c-0.4,0-0.8,0-1.1,0
				c-1.1,0-2.2-0.1-3.2-0.4c-1-0.3-1.9-0.7-2.6-1.2l1.4-1c0.6,0.3,1.3,0.6,2,0.8c0.7,0.2,1.5,0.3,2.3,0.3c0.2,0,0.4,0,0.7,0
				c0.3,0,0.6,0,0.9-0.1c0.3,0,0.6-0.1,0.9-0.2c0.3-0.1,0.6-0.2,0.8-0.3c0.2-0.1,0.4-0.3,0.6-0.5c0.2-0.2,0.2-0.4,0.2-0.7
				c0-0.8-0.5-1.3-1.5-1.4c-0.5-0.1-1.1-0.1-1.6-0.1c-0.6,0-1.2-0.1-1.8-0.1c-1.2-0.1-2.4-0.3-3.4-0.7
				C160.8,165.4,160.3,164.5,160.3,163.2z"/>
		</g>
	</g>
	<g>
		<linearGradient id="SVGID_1_" gradientUnits="userSpaceOnUse" x1="116.785" y1="85.7137" x2="168.9474" y2="85.7137">
			<stop  offset="0" style="stop-color:#662D91"/>
			<stop  offset="0.1961" style="stop-color:#8053A2"/>
			<stop  offset="0.4826" style="stop-color:#A885BD"/>
			<stop  offset="0.7217" style="stop-color:#CBB1D5"/>
			<stop  offset="0.901" style="stop-color:#E5D0E6"/>
			<stop  offset="1" style="stop-color:#EFDCEC"/>
		</linearGradient>
		<path class="st1" d="M157.7,67.6c-2.9,0-5.6,0.2-8.2,0.6c-1,4.5-2.6,9.1-4.8,13.3c-4.3,8.1-12.5,17.9-27.9,20.7
			c3.7,1.1,7.4,1.7,11.1,1.7c24,0,40.3-24.5,41.1-35.3C165.1,67.9,161.3,67.6,157.7,67.6z"/>
		<linearGradient id="SVGID_2_" gradientUnits="userSpaceOnUse" x1="114.6775" y1="73.2001" x2="148.9832" y2="73.2001">
			<stop  offset="0" style="stop-color:#0091CE"/>
			<stop  offset="1" style="stop-color:#E4EAF3"/>
		</linearGradient>
		<path class="st2" d="M116.3,97.1c-0.3,1.5-0.5,2.7-0.8,3.5c15.2-2.5,23.4-12.1,27.5-19.9c2.1-4,3.6-8.2,4.5-12.2
			c0.1-0.3,0.1-0.6,0.2-0.9c0.1-0.3,0.1-0.6,0.2-0.9c1.7-8.7,0.9-16.5-0.9-20.7c-6.6,2.3-12.3,5.3-17,8.8c-0.3,0.2-0.5,0.4-0.8,0.6
			c-0.3,0.2-0.5,0.4-0.8,0.6c-6.5,5.2-11.2,11.6-13.8,19.2c0.6,1.7,1,3.3,1.3,4.9c0.1,0.3,0.1,0.6,0.2,0.9c0.1,0.3,0.1,0.6,0.2,0.9
			c0.4,2.2,0.5,4.2,0.6,6.1c0,0.6,0,1.1,0,1.7c0,0.7,0,1.3,0,1.9C116.8,93.7,116.6,95.7,116.3,97.1z"/>
		<linearGradient id="SVGID_3_" gradientUnits="userSpaceOnUse" x1="80.416" y1="45.7795" x2="112.5466" y2="101.4314">
			<stop  offset="0" style="stop-color:#FFDA80"/>
			<stop  offset="1" style="stop-color:#F78E1E"/>
		</linearGradient>
		<path class="st3" d="M114.3,80.9c-0.1-0.3-0.1-0.6-0.2-0.9c-0.1-0.6-0.3-1.2-0.4-1.8c-0.1-0.5-0.3-1.1-0.5-1.6
			c-0.2-0.5-0.3-1-0.5-1.5c0,0,0,0,0,0c-2.8-8.1-8-14.9-15.3-20.3c-0.3-0.2-0.5-0.4-0.8-0.6c-0.2-0.2-0.5-0.3-0.7-0.5
			c-4.5-3.1-9.7-5.6-15.6-7.7c-1.9,4.2-2.6,12.2-0.9,20.9c0.1,0.3,0.1,0.6,0.2,1c0.1,0.3,0.1,0.6,0.2,0.9c0.9,4,2.4,8.1,4.5,12.1
			c4.2,7.8,12.3,17.4,27.5,19.9c0,0,0,0,0.1,0c0.3,0,0.5,0.1,0.8,0.1c0.1,0,0.1,0,0.2,0c0.1,0,0.2,0,0.3,0c0.1,0,0.3,0,0.4,0
			c0,0,0.1,0,0.1,0c0-0.1,0-0.1,0.1-0.2v0c0.1-0.2,0.1-0.4,0.2-0.6c0.1-0.5,0.3-1.1,0.4-1.8c0.1-0.4,0.2-0.8,0.2-1.3
			c0.2-1,0.3-2.2,0.4-3.5c0.1-0.7,0.1-1.5,0.1-2.3c0.1-2.8-0.1-6-0.6-9.4C114.4,81.5,114.4,81.2,114.3,80.9z"/>
		<linearGradient id="SVGID_4_" gradientUnits="userSpaceOnUse" x1="113.0299" y1="27.3435" x2="113.0299" y2="72.341">
			<stop  offset="0" style="stop-color:#D3E280"/>
			<stop  offset="1" style="stop-color:#62BB46"/>
		</linearGradient>
		<path class="st4" d="M113.7,72.3c2.6-6.3,7-12.8,14.4-18.5c-3-12.4-9.4-22.6-14.7-26.5c-5.9,6.6-12,15.3-15.3,25.5
			C106.2,58.8,111,65.7,113.7,72.3z"/>
		<path class="st0" d="M113.8,101.7C113.8,101.7,113.8,101.7,113.8,101.7C113.8,101.7,113.8,101.7,113.8,101.7
			C113.7,101.7,113.7,101.7,113.8,101.7z"/>
		<linearGradient id="SVGID_5_" gradientUnits="userSpaceOnUse" x1="96.8545" y1="109.7459" x2="69.2214" y2="61.8838">
			<stop  offset="0" style="stop-color:#CE1571"/>
			<stop  offset="0.1887" style="stop-color:#D55687"/>
			<stop  offset="0.4778" style="stop-color:#E08EAB"/>
			<stop  offset="0.7191" style="stop-color:#EAB7CA"/>
			<stop  offset="0.9" style="stop-color:#F1D2E1"/>
			<stop  offset="1" style="stop-color:#F3DCEB"/>
		</linearGradient>
		<path class="st5" d="M82.7,81.5c-2.2-4.2-3.8-8.7-4.8-13.2c-2.9-0.5-5.8-0.7-8.9-0.7c-3.6,0-7.4,0.3-11.3,0.9
			c0.8,10.8,17.1,35.3,41.1,35.3c2.4,0,4.8-0.2,7.2-0.7c1.4-0.3,2.8-0.6,4.2-1.1C95.1,99.2,87,89.4,82.7,81.5z"/>
	</g>
</g>
</svg>
